<svg width="150" height="53" viewBox="0 0 150 53" fill="none" xmlns="http://www.w3.org/2000/svg">
<path d="M38.6643 26.8639H29.8867V4.63672H38.3444C42.3601 4.63672 44.9187 6.96113 44.9187 10.7383C44.9395 11.7353 44.6704 12.7161 44.1453 13.5567C43.6202 14.3972 42.8629 15.0595 41.9692 15.4597C43.6394 16.1498 45.2385 17.8205 45.2385 20.617C45.2385 24.6847 42.5378 26.8639 38.6643 26.8639ZM38.0601 7.6875H33.1916V14.0433H38.0957C40.1923 14.0433 41.6493 12.9174 41.6493 10.8472C41.6493 8.77707 40.1923 7.6875 38.0601 7.6875ZM38.38 17.0578H33.1916V23.8494H38.38C40.6543 23.8494 41.9692 22.3966 41.9692 20.4354C41.9692 18.4742 40.6543 17.0578 38.38 17.0578Z" fill="white"/>
<path d="M56.681 26.8624V25.2643C55.6439 26.3436 54.2432 26.9782 52.7643 27.0389C51.2853 27.0996 49.8394 26.5819 48.7208 25.5912C47.5126 24.3927 47.1572 22.9036 47.1572 21.124V11.0273H50.2844V20.6882C50.2844 23.1578 51.6704 24.2111 53.4117 24.2111C55.153 24.2111 56.61 23.1215 56.61 20.6882V11.0273H59.7372V26.8624H56.681Z" fill="white"/>
<path d="M70.8598 14.7727C70.1491 14.0463 69.6161 13.7194 68.55 13.7194C66.8797 13.7194 65.4583 15.0995 65.4583 17.2787V26.9031H62.3311V11.0318H65.3872V12.7388C66.169 11.6129 67.7682 10.8502 69.5095 10.8502C70.1938 10.8143 70.8778 10.9286 71.5153 11.1854C72.1528 11.4423 72.729 11.8357 73.2053 12.3393L70.8598 14.7727Z" fill="white"/>
<path d="M85.039 25.663C84.0168 26.6269 82.6619 27.1364 81.2721 27.0794C79.6375 27.0794 78.3226 26.6799 77.221 25.2635V33.29H74.0938V11.0265H77.1499V12.6972C78.3226 11.2444 79.6019 10.8086 81.2366 10.8086C82.8713 10.8086 84.1862 11.3534 85.039 12.225C86.5316 13.7867 86.7803 16.3291 86.7803 18.9077C86.7803 21.4863 86.5316 24.1013 85.039 25.663ZM80.4548 13.7141C77.6119 13.7141 77.221 16.1475 77.221 18.944C77.221 21.7406 77.6119 24.2103 80.4548 24.2103C83.2977 24.2103 83.6531 21.7406 83.6531 18.944C83.6531 16.1475 83.2622 13.7141 80.4548 13.7141Z" fill="white"/>
<path d="M98.3657 27.0809C95.0964 27.0809 92.7865 26.2819 90.6543 24.1391L92.822 21.9237C94.4212 23.558 96.198 24.0665 98.4013 24.0665C101.28 24.0665 102.879 22.8316 102.879 20.6162C102.879 19.5993 102.63 18.8366 102.026 18.2918C101.493 17.7833 100.747 17.4928 99.6451 17.3475L97.0864 16.9843C95.3096 16.6937 93.9237 16.149 92.9997 15.2047C91.9336 14.1877 91.4006 12.7713 91.4006 10.919C91.4006 7.03293 94.1369 4.41797 98.6856 4.41797C101.6 4.41797 103.59 5.18066 105.438 6.96029L103.341 9.1031C101.99 7.79562 100.427 7.39612 98.5434 7.39612C95.9848 7.39612 94.5989 8.84887 94.5989 10.8464C94.5821 11.2225 94.643 11.598 94.7778 11.9485C94.9125 12.2989 95.1179 12.6164 95.3807 12.8803C95.9137 13.3887 96.5889 13.6793 97.7616 13.8972L100.356 14.2967C102.346 14.6236 103.447 15.0957 104.407 15.931C105.58 17.0206 106.184 18.546 106.184 20.5072C106.184 24.6113 102.95 27.0809 98.3657 27.0809Z" fill="white"/>
<path d="M117.306 26.8624V25.2643C116.269 26.3436 114.868 26.9782 113.389 27.0389C111.91 27.0996 110.464 26.5819 109.346 25.5912C108.173 24.3927 107.782 22.9036 107.782 21.124V11.0273H110.909V20.6882C110.909 23.1578 112.295 24.2111 114.037 24.2111C115.778 24.2111 117.235 23.1215 117.235 20.6882V11.0273H120.362V26.8624H117.306Z" fill="white"/>
<path d="M122.85 7.90774V4.56641H126.155V7.94406L122.85 7.90774ZM122.956 26.8662V11.0312H126.083V26.8662H122.956Z" fill="white"/>
<path d="M133.404 26.8659C130.49 26.8659 129.14 24.7594 129.14 22.4713V13.4642H127.363V11.0309H129.14V6.52734H132.267V11.0672H135.252V13.5006H132.267V22.326C132.267 23.4883 132.8 24.1783 133.973 24.1783H135.252V26.9022L133.404 26.8659Z" fill="white"/>
<path d="M138.948 19.8883C138.948 22.6485 140.334 24.3192 142.892 24.3192C144.634 24.3192 145.558 23.8107 146.659 22.6849L148.649 24.5734C147.05 26.2078 145.558 27.0431 142.857 27.0431C138.983 27.0431 135.892 24.9366 135.892 18.9077C135.892 13.7504 138.486 10.8086 142.466 10.8086C146.624 10.8086 149.04 13.8594 149.04 18.5082V19.852L138.948 19.8883ZM145.486 15.53C145.298 15.1171 145.031 14.7463 144.702 14.4387C144.373 14.1312 143.988 13.893 143.569 13.7378C143.15 13.5827 142.705 13.5135 142.259 13.5344C141.814 13.5552 141.377 13.6657 140.973 13.8594C140.258 14.2093 139.681 14.7988 139.339 15.53C139.052 16.2051 138.919 16.9376 138.948 17.6729H145.913C145.919 16.9359 145.774 16.2059 145.486 15.53Z" fill="white"/>
<path d="M22.9567 4.53125H0.995117V26.9763H22.9567V4.53125Z" fill="#5B4FFF"/>
<path d="M12.8639 23.8869H11.1582V21.2719L13.4325 18.4027H11.1582V14.8798H6.96484L11.1582 9.61356V7.65234H12.8639V10.231L10.554 13.1365H12.8639V16.6594H17.0217L12.8639 21.8893V23.8869Z" fill="white"/>
<path d="M34.2929 43.9353H30.8103V49.0926H29.9219V36.9258H34.2929C36.354 36.9258 37.8821 38.1969 37.8821 40.4487C37.8821 42.7005 36.354 43.9353 34.2929 43.9353ZM34.1863 37.7611H30.8103V43.1363H34.1863C35.8565 43.1363 36.9937 42.301 36.9937 40.4487C36.9937 38.5965 35.8565 37.7611 34.1863 37.7611Z" fill="white"/>
<path d="M42.2882 41.5363C40.9023 41.5363 40.1205 42.6985 40.1205 44.0423V49.1269H39.2676V40.8825H40.1205V41.9721C40.3796 41.5852 40.7309 41.2721 41.1413 41.0624C41.5516 40.8527 42.0075 40.7533 42.4659 40.7736C42.829 40.7526 43.1922 40.8133 43.5299 40.9514C43.8676 41.0894 44.1716 41.3015 44.4204 41.5726L43.8163 42.19C43.6246 41.9725 43.3881 41.8011 43.1239 41.6881C42.8597 41.5751 42.5743 41.5232 42.2882 41.5363Z" fill="white"/>
<path d="M50.1777 48.2935C49.5691 48.8709 48.7694 49.1918 47.9389 49.1918C47.1085 49.1918 46.3087 48.8709 45.7001 48.2935C44.8472 47.4219 44.7051 46.1507 44.7051 44.9885C44.7051 43.8263 44.8472 42.5551 45.7001 41.6835C46.3087 41.106 47.1085 40.7852 47.9389 40.7852C48.7694 40.7852 49.5691 41.106 50.1777 41.6835C51.0306 42.5551 51.1727 43.8263 51.1727 44.9885C51.1727 46.1507 51.0306 47.4219 50.1777 48.2935ZM49.6091 42.2283C49.39 42.0038 49.1296 41.8257 48.843 41.7042C48.5564 41.5827 48.2492 41.5202 47.9389 41.5202C47.6286 41.5202 47.3214 41.5827 47.0348 41.7042C46.7482 41.8257 46.4879 42.0038 46.2687 42.2283C45.5935 42.9183 45.558 44.0442 45.558 44.9885C45.558 45.9328 45.5935 47.0587 46.2687 47.7487C46.4879 47.9732 46.7482 48.1513 47.0348 48.2728C47.3214 48.3943 47.6286 48.4568 47.9389 48.4568C48.2492 48.4568 48.5564 48.3943 48.843 48.2728C49.1296 48.1513 49.39 47.9732 49.6091 47.7487C50.2843 47.0587 50.3199 45.9328 50.3199 44.9885C50.3199 44.0442 50.2843 42.9183 49.6091 42.2283Z" fill="white"/>
<path d="M53.767 41.5371V49.1278H52.9141V41.5371H51.8125V40.8834H52.9141V39.1038C52.9141 37.8689 53.5893 36.9609 54.8686 36.9609H55.6149V37.7236H55.0463C54.1934 37.7236 53.8025 38.2321 53.8025 39.1038V40.8834H55.6149V41.5371H53.767Z" fill="white"/>
<path d="M56.8945 45.1669C56.8945 47.2734 57.7829 48.4356 59.5242 48.4356C59.9451 48.4518 60.3644 48.3723 60.7516 48.2027C61.1388 48.0331 61.4842 47.7777 61.763 47.4549L62.4027 47.9634C62.0352 48.3773 61.5846 48.7052 61.0817 48.9246C60.5787 49.144 60.0353 49.2497 59.4887 49.2346C57.2499 49.2346 56.0771 47.7818 56.0771 45.0216C56.0771 42.3703 57.2854 40.8086 59.311 40.8086C61.3366 40.8086 62.5448 42.2977 62.5448 44.84V45.2395L56.8945 45.1669ZM61.3721 42.9151C61.2046 42.4921 60.9132 42.1324 60.5378 41.8853C60.1625 41.6383 59.7215 41.5159 59.2754 41.535C58.8323 41.5308 58.3977 41.6593 58.0251 41.9045C57.6526 42.1498 57.3584 42.5011 57.1788 42.9151C56.9788 43.4098 56.882 43.9417 56.8945 44.4768H61.6564C61.6514 43.9433 61.5552 43.4147 61.3721 42.9151Z" fill="white"/>
<path d="M66.7733 49.2015C65.3518 49.2015 64.3212 48.8383 63.5039 48.0393L64.0725 47.4218C64.423 47.761 64.836 48.0255 65.2875 48.2001C65.7389 48.3746 66.2198 48.4558 66.7022 48.4388C68.3013 48.4388 69.1187 47.8577 69.1187 46.7681C69.1187 45.8964 68.6567 45.4969 67.5906 45.388L66.2402 45.279C64.6055 45.1337 63.8237 44.4074 63.8237 43.1362C63.8237 41.6835 64.9609 40.7755 66.7022 40.7755C67.717 40.7452 68.7142 41.051 69.5451 41.6471L68.9765 42.2282C68.3123 41.751 67.5136 41.5087 66.7022 41.5382C65.3518 41.5382 64.6411 42.1193 64.6411 43.1362C64.6411 44.0079 65.1386 44.4074 66.2758 44.5163L67.5906 44.6253C68.941 44.7706 69.936 45.1701 69.936 46.7681C70.0071 48.2572 68.7633 49.2015 66.7733 49.2015Z" fill="white"/>
<path d="M74.1297 49.2015C72.7083 49.2015 71.6777 48.8383 70.8604 48.0393L71.4289 47.4218C71.7739 47.769 72.186 48.0388 72.6388 48.2139C73.0916 48.389 73.5752 48.4656 74.0586 48.4388C75.6578 48.4388 76.4751 47.8577 76.4751 46.7681C76.4751 45.8964 76.0132 45.4969 74.9471 45.388L73.5967 45.279C71.962 45.1337 71.1802 44.4074 71.1802 43.1362C71.1802 41.6835 72.3174 40.7755 74.0586 40.7755C75.0735 40.7452 76.0707 41.051 76.9016 41.6471L76.333 42.2282C75.6688 41.751 74.8701 41.5087 74.0586 41.5382C72.7083 41.5382 71.9975 42.1193 71.9975 43.1362C71.9975 44.0079 72.495 44.4074 73.6322 44.5163L74.9471 44.6253C76.2975 44.7706 77.2925 45.1701 77.2925 46.7681C77.3636 48.2572 76.1198 49.2015 74.1297 49.2015Z" fill="white"/>
<path d="M78.6064 38.0153V36.9258H79.6725V38.0153H78.6064ZM78.7131 49.0926V40.8845H79.5659V49.1289L78.7131 49.0926Z" fill="white"/>
<path d="M86.6387 48.2935C86.03 48.8709 85.2303 49.1918 84.3998 49.1918C83.5694 49.1918 82.7697 48.8709 82.161 48.2935C81.3082 47.4219 81.166 46.1507 81.166 44.9885C81.166 43.8263 81.3082 42.5551 82.161 41.6835C82.7697 41.106 83.5694 40.7852 84.3998 40.7852C85.2303 40.7852 86.03 41.106 86.6387 41.6835C87.4915 42.5551 87.6337 43.8263 87.6337 44.9885C87.6337 46.1507 87.4915 47.4219 86.6387 48.2935ZM86.0701 42.2283C85.8509 42.0038 85.5906 41.8257 85.304 41.7042C85.0174 41.5827 84.7101 41.5202 84.3998 41.5202C84.0896 41.5202 83.7823 41.5827 83.4957 41.7042C83.2091 41.8257 82.9488 42.0038 82.7296 42.2283C82.0544 42.9183 82.0189 44.0442 82.0189 44.9885C82.0189 45.9328 82.0544 47.0587 82.7296 47.7487C82.9488 47.9732 83.2091 48.1513 83.4957 48.2728C83.7823 48.3943 84.0896 48.4568 84.3998 48.4568C84.7101 48.4568 85.0174 48.3943 85.304 48.2728C85.5906 48.1513 85.8509 47.9732 86.0701 47.7487C86.7453 47.0587 86.7808 45.9328 86.7808 44.9885C86.7808 44.0442 86.7453 42.9183 86.0701 42.2283Z" fill="white"/>
<path d="M94.6336 49.0928V43.9718C94.6336 42.3738 93.8518 41.5021 92.3948 41.5021C90.9378 41.5021 90.1205 42.3738 90.1205 43.9718V49.0928H89.2676V40.8847H90.1205V41.8653C90.3529 41.5446 90.6451 41.274 90.9804 41.0692C91.3156 40.8644 91.6871 40.7295 92.0736 40.6721C92.4601 40.6147 92.8538 40.636 93.2322 40.7348C93.6106 40.8337 93.9661 41.008 94.2782 41.2479C94.6686 41.552 94.9797 41.9496 95.1842 42.4057C95.3887 42.8617 95.4803 43.3621 95.4509 43.8629V49.1291L94.6336 49.0928Z" fill="white"/>
<path d="M102.204 49.0928V48.2574C101.529 48.9475 100.889 49.1654 99.7517 49.1654C98.5434 49.1654 97.9038 48.9475 97.3707 48.4027C96.9825 47.965 96.7671 47.3955 96.7666 46.8047C96.7666 45.2793 97.8327 44.4076 99.574 44.4076H102.168V43.4997C102.168 42.1922 101.564 41.4658 99.8938 41.4658C98.7567 41.4658 98.1881 41.7564 97.655 42.5191L97.0154 41.9743C97.6906 40.9937 98.5434 40.7031 99.8583 40.7031C101.99 40.7031 102.986 41.6837 102.986 43.3907V49.0201L102.204 49.0928ZM102.204 45.1703H99.6806C98.2947 45.1703 97.6195 45.7151 97.6195 46.841C97.6195 47.9669 98.2591 48.439 99.7161 48.439C100.462 48.439 101.138 48.3664 101.706 47.7853C102.026 47.4948 102.168 46.95 102.168 46.2236V45.1703H102.204Z" fill="white"/>
<path d="M106.929 49.0926C105.614 49.0926 104.975 48.2573 104.975 46.9498V36.9258H105.827V46.9498C105.827 47.8941 106.112 48.3299 107.071 48.3299H107.675V49.0926H106.929Z" fill="white"/>
</svg>
